<svg width="21" height="21" viewBox="0 0 21 21" fill="none" xmlns="http://www.w3.org/2000/svg">
<path fill-rule="evenodd" clip-rule="evenodd" d="M1.96033 11.101C1.96033 6.62127 5.60525 2.97595 10.0853 2.97595C14.5724 2.97595 18.2103 6.61384 18.2103 11.101C18.2103 15.581 14.5654 19.226 10.0853 19.226C5.59861 19.226 1.96033 15.5877 1.96033 11.101ZM13.1384 13.5706C13.5419 12.9668 13.7572 12.2569 13.7572 11.5306V10.9838H12.6635V11.5306C12.6635 12.0405 12.5122 12.539 12.229 12.963C11.9457 13.3869 11.543 13.7174 11.0719 13.9125C10.6008 14.1077 10.0825 14.1587 9.58236 14.0592C9.08225 13.9598 8.62288 13.7142 8.26232 13.3537C7.90176 12.9931 7.65622 12.5337 7.55674 12.0336C7.45726 11.5335 7.50832 11.0151 7.70345 10.544C7.89858 10.0729 8.22903 9.6703 8.653 9.38701C9.07697 9.10372 9.57542 8.95252 10.0853 8.95252H10.0854C10.2025 8.95252 10.3088 8.95252 10.4025 8.95564L9.31189 10.0463L10.0853 10.8197L12.4213 8.48377L10.0853 6.14783L9.31228 6.92127L10.2498 7.85877H10.0853C9.3591 7.85877 8.64918 8.07412 8.04534 8.47759C7.44151 8.88106 6.97087 9.45453 6.69296 10.1255C6.41504 10.7964 6.34233 11.5347 6.48401 12.247C6.62569 12.9593 6.9754 13.6135 7.48892 14.1271C8.00244 14.6406 8.65671 14.9903 9.36898 15.132C10.0813 15.2736 10.8195 15.2009 11.4905 14.923C12.1614 14.6451 12.7349 14.1745 13.1384 13.5706Z" fill="#D6D8E3"/>
</svg>
