<svg width="20" height="20" viewBox="0 0 20 20" fill="none" xmlns="http://www.w3.org/2000/svg">
<path d="M1.08245 13.0132C0.78977 13.3062 0.625366 13.7034 0.625366 14.1175C0.625366 14.5316 0.78977 14.9288 1.08245 15.2218L4.62347 18.7628C4.91645 19.0555 5.31364 19.2199 5.72777 19.2199C6.1419 19.2199 6.53908 19.0555 6.83206 18.7628L9.76566 15.8292L4.01605 10.0796L1.08245 13.0132Z" fill="#D6D8E3"/>
<path d="M19.3746 5.59157C19.3752 5.38561 19.335 5.18159 19.2562 4.9913C19.1774 4.801 19.0617 4.62823 18.9156 4.48297L15.361 0.928285C15.0669 0.634431 14.6683 0.46936 14.2526 0.46936C13.8369 0.46936 13.4382 0.634431 13.1442 0.928285L10.3121 3.76266L16.0824 9.53297L18.9156 6.69977C19.0616 6.55459 19.1774 6.38188 19.2562 6.19165C19.335 6.00143 19.3752 5.79746 19.3746 5.59157Z" fill="#D6D8E3"/>
<path d="M15.1975 10.3998L10.6663 14.931L4.91235 9.18103L9.4436 4.64978L15.1975 10.3998Z" fill="#D6D8E3"/>
</svg>
