<svg width="42" height="54" viewBox="0 0 42 54" fill="none" xmlns="http://www.w3.org/2000/svg">
<g id="Icon/document-fill Copy">
<path id="Vector" fill-rule="evenodd" clip-rule="evenodd" d="M41.2705 23.2603H24.8643C23.3724 23.2603 21.9417 22.6676 20.8868 21.6127C19.8319 20.5578 19.2393 19.1271 19.2393 17.6353V1.229C19.2393 1.10468 19.1899 0.985455 19.102 0.897548C19.0141 0.80964 18.8948 0.760254 18.7705 0.760254H7.98926C6.00014 0.760254 4.09248 1.55043 2.68596 2.95695C1.27943 4.36348 0.489258 6.27113 0.489258 8.26025V45.7603C0.489258 47.7494 1.27943 49.657 2.68596 51.0636C4.09248 52.4701 6.00014 53.2603 7.98926 53.2603H34.2393C36.2284 53.2603 38.136 52.4701 39.5426 51.0636C40.9491 49.657 41.7393 47.7494 41.7393 45.7603V23.729C41.7393 23.6047 41.6899 23.4855 41.602 23.3975C41.5141 23.3096 41.3948 23.2603 41.2705 23.2603ZM30.4893 42.0103H11.7393C11.242 42.0103 10.7651 41.8127 10.4134 41.4611C10.0618 41.1094 9.86426 40.6325 9.86426 40.1353C9.86426 39.638 10.0618 39.1611 10.4134 38.8094C10.7651 38.4578 11.242 38.2603 11.7393 38.2603H30.4893C30.9865 38.2603 31.4635 38.4578 31.8151 38.8094C32.1667 39.1611 32.3643 39.638 32.3643 40.1353C32.3643 40.6325 32.1667 41.1094 31.8151 41.4611C31.4635 41.8127 30.9865 42.0103 30.4893 42.0103ZM11.7393 32.6353H30.4893C30.9865 32.6353 31.4635 32.4377 31.8151 32.0861C32.1667 31.7344 32.3643 31.2575 32.3643 30.7603C32.3643 30.263 32.1667 29.7861 31.8151 29.4344C31.4635 29.0828 30.9865 28.8853 30.4893 28.8853H11.7393C11.242 28.8853 10.7651 29.0828 10.4134 29.4344C10.0618 29.7861 9.86426 30.263 9.86426 30.7603C9.86426 31.2575 10.0618 31.7344 10.4134 32.0861C10.7651 32.4377 11.242 32.6353 11.7393 32.6353Z" fill="#C0C2CC"/>
<path id="Vector_2" d="M40.245 19.1121L23.3898 2.25701C23.3571 2.22442 23.3154 2.20226 23.27 2.19329C23.2247 2.18433 23.1777 2.18897 23.135 2.20663C23.0923 2.22429 23.0558 2.25418 23.03 2.29255C23.0042 2.33092 22.9904 2.37605 22.9902 2.42227V17.6365C22.9902 18.1339 23.1877 18.6109 23.5394 18.9626C23.8911 19.3142 24.3681 19.5118 24.8654 19.5118H40.0797C40.1259 19.5116 40.1711 19.4978 40.2094 19.472C40.2478 19.4462 40.2777 19.4097 40.2954 19.367C40.313 19.3243 40.3177 19.2773 40.3087 19.2319C40.2997 19.1866 40.2776 19.1449 40.245 19.1121V19.1121Z" fill="#C0C2CC"/>
</g>
</svg>
