<svg width="63" height="54" viewBox="0 0 63 54" fill="none" xmlns="http://www.w3.org/2000/svg">
<g id="Icon/images/fill Copy">
<path id="Vector" fill-rule="evenodd" clip-rule="evenodd" d="M16.7553 10.3228H52.883C56.8709 10.3228 60.1146 13.5466 60.1146 17.5099V46.4165C60.1146 50.3798 56.8334 53.4478 52.849 53.4478H16.7553C12.7709 53.4478 9.48962 50.2239 9.48962 46.2606V17.5099C9.48962 13.5466 12.7709 10.3228 16.7553 10.3228ZM46.8279 18.4354C45.9457 17.8392 44.9067 17.5175 43.842 17.511V17.5099C42.4082 17.5071 41.0319 18.0732 40.0151 19.0841C38.9983 20.0949 38.4241 21.4679 38.4185 22.9017C38.4186 23.9664 38.7339 25.0073 39.3248 25.8931C39.9157 26.7789 40.7557 27.4698 41.7388 27.8787C42.7219 28.2877 43.804 28.3963 44.8488 28.191C45.8936 27.9856 46.8541 27.4755 47.6093 26.7249C48.3645 25.9742 48.8805 25.0168 49.0922 23.9733C49.3039 22.9298 49.2018 21.847 48.7988 20.8614C48.3958 19.8758 47.71 19.0317 46.8279 18.4354ZM16.7072 49.8548C14.715 49.8548 13.208 48.2435 13.208 46.2618V38.6646L23.8088 29.197C24.8451 28.2854 26.1885 27.8006 27.5682 27.8404C28.9478 27.8802 30.2611 28.4416 31.2431 29.4114L38.5838 36.6899L25.3416 49.8536L16.7072 49.8548ZM56.0903 47.6368C56.2712 47.2006 56.3645 46.7329 56.3646 46.2606V40.6263L51.1521 36.2024C50.1741 35.3863 48.9397 34.9409 47.6659 34.9443C46.3921 34.9477 45.1602 35.3998 44.1865 36.2212L30.4662 49.8536H52.7658C53.2381 49.8542 53.7059 49.7618 54.1424 49.5815C54.5789 49.4012 54.9756 49.1367 55.3099 48.803C55.6441 48.4693 55.9093 48.073 56.0903 47.6368Z" fill="#D6D8E3"/>
<path id="Vector_2" d="M45.115 0.949219H7.61499C5.62587 0.949219 3.71821 1.7394 2.31169 3.14592C0.905167 4.55244 0.11499 6.46009 0.11499 8.44922L0.11499 38.4492C0.116362 40.112 0.669333 41.7274 1.68726 43.0422C2.70518 44.357 4.13054 45.297 5.73999 45.7148V15.0117C5.73999 12.774 6.62894 10.6278 8.21128 9.0455C9.79361 7.46317 11.9397 6.57422 14.1775 6.57422H52.3806C51.9628 4.96477 51.0228 3.53941 49.708 2.52149C48.3932 1.50356 46.7778 0.95059 45.115 0.949219Z" fill="#D6D8E3"/>
</g>
</svg>
