<svg width="21" height="21" viewBox="0 0 21 21" fill="none" xmlns="http://www.w3.org/2000/svg">
<path d="M1.84924 2.8822H18.4117C18.6706 2.8822 18.8805 3.09207 18.8805 3.35095V5.53845C18.8805 5.79734 18.6706 6.0072 18.4117 6.0072H1.84924C1.59036 6.0072 1.38049 5.79734 1.38049 5.53845V3.35095C1.38049 3.09207 1.59036 2.8822 1.84924 2.8822Z" fill="#D6D8E3"/>
<path fill-rule="evenodd" clip-rule="evenodd" d="M2.62988 18.1941V7.25659H17.6299V18.1941C17.6299 18.4427 17.5311 18.6812 17.3553 18.857C17.1795 19.0328 16.941 19.1316 16.6924 19.1316H3.56738C3.31874 19.1316 3.08029 19.0328 2.90447 18.857C2.72865 18.6812 2.62988 18.4427 2.62988 18.1941ZM6.74395 12.8816L10.1299 16.2656L13.5158 12.8793L12.6326 11.9949L10.7549 13.8726V9.13159H9.50488V13.8726L7.62988 11.9957L6.74395 12.8816Z" fill="#D6D8E3"/>
</svg>
